# xmcd
#
# Track frame offsets:
#	150
#	16877
#	30679
#	41931
#	53483
#	65260
#	77562
#	90239
#	101266
#	117918
#	129470
#	142597
#	158124
#	170426
#	184003
#	199905
#
# Disc length: 2793 seconds
#
# Revision: 3
# Processed by: cddbd v1.5.1PL2 Copyright (c) Steve Scherf et al.
# Submitted via: audiograbber 1.83.01
#
DISCID=bf0ae710
DTITLE=Various Artist - SY1049
DYEAR=1900
DGENRE=Karaoke
TTITLE0=Rogers, Kenny - Lucille
TTITLE1=Anderson, Lynn - Rose Garden
TTITLE2=Nelson, Willie - On the Road Again
TTITLE3=Smith, Sammi - Help Me Make It Through the Night
TTITLE4=Denver, John - Take Me Home, Country Roads
TTITLE5=Wynette, Tammy - Stand By Your Man
TTITLE6=Osborne Brothers - Rocky Top
TTITLE7=Gayle, Crystal - Don't It Make My Brown Eyes Blue
TTITLE8=Rogers, Kenny - Gambler, The
TTITLE9=Osmond, Marie - Paper Roses
TTITLE10=Oak Ridge Boys - Elvira
TTITLE11=Riley, Jeannie C. - Harper Valley PTA
TTITLE12=Campbell, Glen - By the Time I Get to Phoenix
TTITLE13=Tucker, Tanya - Delta Dawn
TTITLE14=Nelson, Willie - Always on My Mind
TTITLE15=Pride, Charlie - Kiss an Angel Good Mornin'
EXTD=Karaoke Songs Not By Original Artists But "In Style Of"
EXTT0=
EXTT1=
EXTT2=
EXTT3=
EXTT4=
EXTT5=
EXTT6=
EXTT7=
EXTT8=
EXTT9=
EXTT10=
EXTT11=
EXTT12=
EXTT13=
EXTT14=
EXTT15=
PLAYORDER=
